<?xml version="1.0" encoding="UTF-8" standalone="no"?>
<svg
   width="16"
   height="16"
   version="1.1"
   id="svg1"
   sodipodi:docname="always.svg"
   inkscape:version="1.3.2 (091e20e, 2023-11-25, custom)"
   xmlns:inkscape="http://www.inkscape.org/namespaces/inkscape"
   xmlns:sodipodi="http://sodipodi.sourceforge.net/DTD/sodipodi-0.dtd"
   xmlns="http://www.w3.org/2000/svg"
   xmlns:svg="http://www.w3.org/2000/svg">
  <defs
     id="defs1" />
  <sodipodi:namedview
     id="namedview1"
     pagecolor="#ffffff"
     bordercolor="#000000"
     borderopacity="0.25"
     inkscape:showpageshadow="2"
     inkscape:pageopacity="0.0"
     inkscape:pagecheckerboard="0"
     inkscape:deskcolor="#d1d1d1"
     inkscape:zoom="12.59375"
     inkscape:cx="-2.8585608"
     inkscape:cy="12.545906"
     inkscape:window-width="1920"
     inkscape:window-height="1010"
     inkscape:window-x="-6"
     inkscape:window-y="-6"
     inkscape:window-maximized="1"
     inkscape:current-layer="svg1" />
  <path
     fill="#e0e0e0"
     d="m 13,3 c 0.552285,0 1,0.4477153 1,1 v 8 c 0,0.552285 -0.447715,1 -1,1 h -1 c -0.552285,0 -1,-0.447715 -1,-1 V 4 c 0,-0.5522847 0.447715,-1 1,-1 z"
     id="path1"
     inkscape:label="path1"
     sodipodi:nodetypes="sssssssss" />
  <path
     fill="#e0e0e0"
     d="m 2.9757796,3 c -0.5417214,0.013546 -0.9740856,0.45611 -0.975,0.998 v 8 c -3.148e-4,0.838862 0.9701632,1.305289 1.625,0.781 l 5,-4 c 0.4989606,-0.4003069 0.4989606,-1.1596931 0,-1.56 l -5,-4 C 3.4417067,3.0716532 3.2114891,2.9940875 2.9757796,3 Z"
     id="path2"
     sodipodi:nodetypes="cccccccc" />
  <path
     fill="#e0e0e0"
     d="m 13,3 c 0.552285,0 1,0.4477153 1,1 v 8 c 0,0.552285 -0.447715,1 -1,1 h -1 c -0.552285,0 -1,-0.447715 -1,-1 V 4 c 0,-0.5522847 0.447715,-1 1,-1 z"
     id="path3"
     inkscape:label="path1"
     sodipodi:nodetypes="sssssssss" />
</svg>
